<?xml version="1.0" encoding="UTF-8"?><svg id="Layer_2" xmlns="http://www.w3.org/2000/svg" xmlns:xlink="http://www.w3.org/1999/xlink" viewBox="0 0 150 149.81"><defs><style>.cls-1{fill:url(#linear-gradient);}</style><linearGradient id="linear-gradient" x1="0" y1="74.9" x2="150" y2="74.9" gradientUnits="userSpaceOnUse"><stop offset="0" stop-color="#00fff4"/><stop offset="1" stop-color="#438afe"/></linearGradient></defs><g id="logo"><path class="cls-1" d="m16.1,18.76l10.64,1.67c4.89.77,8.44,4.91,8.44,9.86v42.54c0,21.97,17.88,39.85,39.85,39.85s39.85-17.88,39.85-39.85V30.29c0-4.95,3.55-9.1,8.44-9.86l10.64-1.67v56.03c0,.79-.04,1.6-.13,2.4l-.04.41-.02.41c-1.64,31.27-27.47,55.76-58.82,55.76-1.36,0-2.74-.05-4.11-.14-29.64-1.99-53.17-26.31-54.74-56.55-.09-1.76-.06-2.98-.02-4.04v-.33s.01-.33.01-.33V18.76M150,0l-29.17,4.57c-12.66,1.99-22,12.89-22,25.71v42.54c0,13.15-10.66,23.81-23.81,23.81h0c-13.15,0-23.81-10.66-23.81-23.81V30.29c0-12.82-9.33-23.73-22-25.71L.05,0v72.37c-.06,1.57-.09,3.28.03,5.53,1.97,37.97,31.75,69.18,69.68,71.73,1.74.12,3.47.17,5.18.17,40.06,0,72.77-31.42,74.84-70.96.14-1.33.21-2.69.21-4.06V0h0Z"/></g></svg>