<?xml version="1.0" encoding="UTF-8"?>
<svg xmlns="http://www.w3.org/2000/svg" width="3143.939" height="1004.729" viewBox="0 0 3143.939 1004.729">
  <g id="a" data-name="Refensa">
    <g id="b" data-name="Page-1">
      <g id="c" data-name="Horizontal">
        <path id="d" data-name="Path" d="M181.614,726.859L0,545.245V0H537.123C584.488,0,622.885,38.397,622.885,85.762v454.035c0,47.365-38.397,85.762-85.762,85.762h-209.058l131.468,379.17L181.614,726.859Z" fill="#3d82f0"/>
        <path id="e" data-name="Shape" d="M1358.624,618.698v6.205h-98.021l-99.837-158.862h-73.301v158.862h-85.005V190.543h190.493c91.866,0,145.241,62.051,145.241,135.857,0,63.313-34.153,110.482-87.528,129.703l107.96,162.595Zm-271.16-228.38h100.897c43.436,0,62.051-28.503,62.051-63.262,0-32.892-19.221-60.185-62.051-60.185h-100.897v123.447Z" fill="#272838"/>
        <path id="f" data-name="Shape-2" d="M1358.624,464.125c0-91.816,50.902-167.539,154.523-167.539,96.205,0,150.185,69.518,150.185,157.601v32.287h-219.702c.656,44.041,23.004,75.067,70.628,75.067,37.231,0,57.057-17.354,63.262-37.231h81.323c-8.728,58.318-61.446,105.941-144.585,105.941-99.787,.353-155.633-72.999-155.633-166.126Zm219.702-32.892c-1.261-36.625-21.743-65.129-65.179-65.129-46.513,0-66.995,28.503-68.862,65.129h134.041Z" fill="#272838"/>
        <path id="g" data-name="Path-2" d="M1727.855,372.359h-56.502v-70.123h56.502v-27.293c0-72.646,53.425-115.628,123.447-115.628,13.372-.045,26.706,1.41,39.753,4.339v70.123c-10.227-1.972-20.611-3.019-31.026-3.128-31.026,0-49.036,13.066-49.036,44.092v27.293h76.934v70.123h-76.934v252.544h-83.139v-252.343Z" fill="#272838"/>
        <path id="h" data-name="Shape-3" d="M1899.127,464.125c0-91.816,50.852-167.539,154.473-167.539,96.205,0,150.185,69.518,150.185,157.601v32.287h-219.702c.656,44.041,23.004,75.067,70.628,75.067,37.231,0,57.057-17.354,63.262-37.231h81.323c-8.728,58.318-61.446,105.941-144.585,105.941-99.787,.353-155.583-72.999-155.583-166.126Zm219.652-32.892c-1.261-36.625-21.743-65.129-65.078-65.129-46.513,0-66.995,28.503-68.862,65.129h133.94Z" fill="#272838"/>
        <path id="i" data-name="Path-3" d="M2237.887,302.236h74.462l6.205,36.575h2.522c18.01-24.165,47.775-42.175,91.866-42.175,71.334,0,117.292,44.697,117.292,116.637v211.883h-83.038v-188.374c0-40.359-17.96-64.523-59.579-64.523-39.703,0-66.39,27.898-66.39,73.806v178.738h-83.341V302.236Z" fill="#272838"/>
        <path id="j" data-name="Path-4" d="M2558.688,516.288h83.139c0,24.821,19.271,44.092,57.108,44.092,36.626,0,53.374-13.066,53.374-29.815s-11.805-26.082-37.231-31.127l-52.113-10.09c-52.113-10.09-94.338-38.442-94.338-98.021,0-52.769,46.513-94.944,128.442-94.944,80.717,0,131.569,45.908,131.569,107.354h-81.928c0-22.349-16.749-40.964-50.902-40.964-27.898,0-45.908,11.805-45.908,29.159,0,16.143,12.41,24.821,32.892,29.159l58.974,10.594c52.113,10.544,94.288,34.103,94.288,98.021s-58.924,100.897-137.118,100.897c-93.683,0-138.38-46.665-140.246-114.316Z" fill="#272838"/>
        <path id="k" data-name="Shape-4" d="M2858.503,529.96c0-58.318,40.359-99.888,130.308-99.888,24.329,.044,48.536,3.439,71.939,10.09v-28.1c0-26.082-16.093-47.169-55.846-47.169-34.708,0-53.98,18.615-53.98,41.569h-78.195c0-60.538,45.958-109.826,134.041-109.826,86.872,0,137.169,49.036,137.169,114.82v213.447h-73.857l-6.205-33.498h-2.472c-18.01,23.559-48.43,39.097-90,39.097-71.99,.101-112.903-43.486-112.903-100.543Zm202.247-24.821v-6.811c-20.378-7.461-41.97-11.053-63.666-10.594-36.575,0-55.846,15.538-55.846,38.492s16.749,38.492,50.448,38.492c43.033,0,69.064-27.343,69.064-59.579h0Z" fill="#272838"/>
      </g>
    </g>
    <g>
      <g>
        <path d="M2967.648,894.669h-3.546c-1.977-.005-3.576-1.596-3.604-3.567v-39.301c.003-.071,.005-.141,.005-.213,0-.09-.005-.178-.005-.268v-126.899c0-4.671-4.474-8.041-8.963-6.752l-26.949,7.736c-3.012,.865-5.087,3.619-5.087,6.752v47.018c-7.364-4.402-15.488-7.743-24.202-9.761-38.229-8.85-77.503,9.881-94.685,45.158-17.182,35.278-7.718,77.748,22.819,102.391,30.535,24.643,74.046,24.925,104.9,.68,8.404,11.327,21.675,18.006,35.779,18.007h3.54c3.88,0,7.025-3.145,7.025-7.025v-26.931c-.001-3.88-3.146-7.025-7.026-7.025Zm-48.269-43.169v.441c-.246,23.624-19.453,42.654-43.08,42.681h.003c-24.562,0-44.325-20.551-43.028-45.397,1.135-21.745,18.94-39.564,40.684-40.716,24.845-1.316,45.412,18.43,45.43,42.991h-.009Z" fill="#0d1730"/>
        <path d="M2779.237,894.669h-3.546c-1.993-.005-3.606-1.621-3.608-3.614v-39.061c0-.136,.01-.269,.01-.405,.069-39.239-26.979-73.324-65.207-82.174-38.229-8.85-77.503,9.881-94.686,45.158-17.182,35.278-7.718,77.748,22.819,102.391,30.535,24.643,74.047,24.925,104.9,.68,8.404,11.327,21.675,18.006,35.779,18.007h3.54c3.88,0,7.025-3.145,7.025-7.025v-26.931c-.001-3.88-3.146-7.025-7.026-7.025Zm-48.269-43.169v.441c-.246,23.624-19.453,42.654-43.08,42.681h.003c-24.562,0-44.326-20.551-43.028-45.397,1.135-21.744,18.94-39.564,40.684-40.716,24.845-1.316,45.412,18.43,45.43,42.991h-.009Z" fill="#0d1730"/>
        <path d="M2605.367,774.241c0-3.88-3.145-7.025-7.025-7.025h-4.377c-39.081,0-70.763,31.682-70.763,70.763v90.647c0,3.88,3.145,7.025,7.025,7.025h26.954c3.88,0,7.025-3.145,7.025-7.025v-90.647c0-16.435,13.324-29.759,29.759-29.759h4.377c3.88,0,7.025-3.145,7.025-7.025v-26.953Z" fill="#0d1730"/>
        <path d="M2501.585,815.417h-90.47c-3.88,0-7.025,3.145-7.025,7.025v26.957c0,3.88,3.145,7.025,7.025,7.025h51.388c-9.8,22.394-32.071,38.059-58.023,38.215-1.697,.005-3.409-.052-5.135-.182-31.233-2.354-56.441-27.737-58.6-58.984-2.57-37.194,26.8-68.16,63.429-68.224,12.398,.016,23.961,3.559,33.739,9.686,1.113,.697,2.353,1.058,3.591,1.11,1.97,.138,3.954-.536,5.431-2.013l19.359-19.359c3.071-3.071,2.643-8.157-.879-10.697-17.194-12.398-38.296-19.722-61.063-19.736-3.277-.008-6.588,.133-9.927,.435-50.565,4.566-90.979,45.675-94.744,96.306-4.559,61.312,44.044,112.669,104.41,112.669,.037,0,.073-.002,.109-.002,.03,0,.059,.002,.088,.002,48.957,0,90.17-33.759,101.568-79.226,2.044-8.156,3.139-16.704,3.139-25.48,0-3.091-.134-6.146-.398-9.162-.316-3.612-3.384-6.365-7.01-6.365Z" fill="#0d1730"/>
        <path d="M3143.603,821.976c-3.957-10.625-10.023-20.238-17.663-28.321-16.72-17.711-41.044-28.186-67.786-26.16-41.264,3.127-74.528,36.589-77.424,77.87-3.457,49.273,35.457,90.286,83.989,90.286,28.628,0,53.918-14.284,69.113-36.11,2.302-3.307,1.382-7.871-2.035-10.006l-22.908-14.312c-3.152-1.97-7.231-1.097-9.441,1.891-7.87,10.641-20.51,17.551-34.729,17.551-24.582,0-44.44-20.636-43.157-45.493,1.147-22.234,19.663-40.273,41.918-40.901,9.785-.276,18.87,2.732,26.244,8.014l-38.558,24.09c-3.291,2.056-4.292,6.391-2.235,9.681l13.2,21.12c2.057,3.291,6.391,4.29,9.682,2.233l36.082-22.56,32.817-20.518c2.809-1.756,4.049-5.252,2.893-8.356Z" fill="#0d1730"/>
      </g>
      <g>
        <path d="M1987.119,767.208c44.045,0,77.377,32.736,77.377,83.627,0,50.591-33.629,84.816-77.377,84.816-29.76,0-50.891-14.881-61.009-32.736v30.057h-27.081v-220.224h27.081v87.494c10.416-18.155,32.141-33.034,61.009-33.034Zm-5.655,23.51c-29.462,0-55.353,22.617-55.353,60.412,0,38.391,25.891,60.712,55.353,60.712,30.058,0,55.355-22.619,55.355-61.008s-25.296-60.116-55.355-60.116Z" fill="#0d1730"/>
        <path d="M2212.708,769.887h27.975l-98.209,239.867h-27.974l32.141-78.567-65.77-161.3h30.058l51.188,132.134,50.592-132.134Z" fill="#0d1730"/>
      </g>
    </g>
  </g>
  <g id="l" data-name="Varbi"/>
  <g id="m" data-name="Workbuster"/>
</svg>